<svg xmlns="http://www.w3.org/2000/svg" xmlns:xlink="http://www.w3.org/1999/xlink" width="1920" zoomAndPan="magnify" viewBox="0 0 1440 809.999993" height="1080" preserveAspectRatio="xMidYMid meet" version="1.0"><defs><clipPath id="id1"><path d="M 407.882812 53.089844 L 1111.382812 53.089844 L 1111.382812 756.589844 L 407.882812 756.589844 Z M 407.882812 53.089844 " clip-rule="nonzero"/></clipPath><clipPath id="id2"><path d="M 468.378906 113.582031 L 1051.128906 113.582031 L 1051.128906 696.332031 L 468.378906 696.332031 Z M 468.378906 113.582031 " clip-rule="nonzero"/></clipPath><clipPath id="id3"><path d="M 449.027344 87.816406 L 1051.277344 87.816406 L 1051.277344 706.566406 L 449.027344 706.566406 Z M 449.027344 87.816406 " clip-rule="nonzero"/></clipPath><clipPath id="id4"><path d="M 608.140625 159.324219 L 911.140625 159.324219 L 911.140625 613.074219 L 608.140625 613.074219 Z M 608.140625 159.324219 " clip-rule="nonzero"/></clipPath></defs><rect x="-144" width="1728" fill="rgb(100%, 100%, 100%)" y="-80.999999" height="971.999992" fill-opacity="1"/><rect x="-144" width="1728" fill="rgb(100%, 100%, 100%)" y="-80.999999" height="971.999992" fill-opacity="1"/><rect x="-144" width="1728" fill="rgb(100%, 100%, 100%)" y="-80.999999" height="971.999992" fill-opacity="1"/><rect x="-144" width="1728" fill="rgb(100%, 100%, 100%)" y="-80.999999" height="971.999992" fill-opacity="1"/><g clip-path="url(#id1)"><path fill="rgb(100%, 58.428955%, 10.978699%)" d="M 1111.382812 404.839844 C 1111.382812 410.597656 1111.242188 416.351562 1110.960938 422.101562 C 1110.679688 427.847656 1110.253906 433.589844 1109.691406 439.316406 C 1109.125 445.046875 1108.421875 450.757812 1107.578125 456.453125 C 1106.734375 462.148438 1105.75 467.816406 1104.625 473.464844 C 1103.503906 479.109375 1102.242188 484.722656 1100.84375 490.308594 C 1099.445312 495.894531 1097.910156 501.4375 1096.238281 506.949219 C 1094.566406 512.457031 1092.761719 517.921875 1090.824219 523.339844 C 1088.882812 528.761719 1086.8125 534.128906 1084.609375 539.449219 C 1082.40625 544.769531 1080.074219 550.027344 1077.613281 555.234375 C 1075.152344 560.4375 1072.5625 565.578125 1069.851562 570.652344 C 1067.136719 575.730469 1064.300781 580.738281 1061.339844 585.675781 C 1058.382812 590.613281 1055.300781 595.476562 1052.105469 600.261719 C 1048.90625 605.046875 1045.59375 609.753906 1042.164062 614.378906 C 1038.734375 619 1035.191406 623.539062 1031.542969 627.988281 C 1027.890625 632.4375 1024.128906 636.796875 1020.265625 641.0625 C 1016.398438 645.328125 1012.429688 649.496094 1008.359375 653.566406 C 1004.289062 657.636719 1000.121094 661.605469 995.855469 665.46875 C 991.589844 669.335938 987.234375 673.09375 982.78125 676.746094 C 978.332031 680.398438 973.796875 683.9375 969.171875 687.367188 C 964.546875 690.796875 959.84375 694.113281 955.054688 697.308594 C 950.269531 700.507812 945.40625 703.585938 940.46875 706.546875 C 935.53125 709.503906 930.523438 712.34375 925.449219 715.054688 C 920.371094 717.769531 915.230469 720.355469 910.027344 722.820312 C 904.824219 725.28125 899.5625 727.613281 894.242188 729.816406 C 888.925781 732.019531 883.554688 734.089844 878.136719 736.027344 C 872.714844 737.96875 867.25 739.773438 861.742188 741.445312 C 856.234375 743.113281 850.6875 744.648438 845.101562 746.046875 C 839.519531 747.449219 833.902344 748.707031 828.257812 749.832031 C 822.613281 750.953125 816.941406 751.9375 811.246094 752.78125 C 805.554688 753.628906 799.839844 754.332031 794.113281 754.898438 C 788.382812 755.460938 782.644531 755.882812 776.894531 756.167969 C 771.144531 756.449219 765.390625 756.589844 759.632812 756.589844 C 753.878906 756.589844 748.125 756.449219 742.375 756.167969 C 736.625 755.882812 730.886719 755.460938 725.15625 754.898438 C 719.429688 754.332031 713.714844 753.628906 708.023438 752.78125 C 702.328125 751.9375 696.65625 750.953125 691.011719 749.832031 C 685.367188 748.707031 679.75 747.449219 674.167969 746.046875 C 668.582031 744.648438 663.035156 743.113281 657.527344 741.445312 C 652.019531 739.773438 646.554688 737.96875 641.132812 736.027344 C 635.714844 734.089844 630.34375 732.019531 625.027344 729.816406 C 619.707031 727.613281 614.445312 725.28125 609.242188 722.820312 C 604.039062 720.355469 598.898438 717.769531 593.820312 715.054688 C 588.742188 712.34375 583.738281 709.503906 578.800781 706.546875 C 573.863281 703.585938 569 700.507812 564.210938 697.308594 C 559.425781 694.113281 554.722656 690.796875 550.097656 687.367188 C 545.472656 683.9375 540.9375 680.398438 536.488281 676.746094 C 532.035156 673.09375 527.679688 669.335938 523.414062 665.46875 C 519.148438 661.605469 514.980469 657.636719 510.910156 653.566406 C 506.839844 649.496094 502.871094 645.328125 499.003906 641.0625 C 495.140625 636.796875 491.378906 632.4375 487.726562 627.988281 C 484.078125 623.539062 480.535156 619 477.105469 614.378906 C 473.675781 609.753906 470.363281 605.046875 467.164062 600.261719 C 463.96875 595.476562 460.886719 590.613281 457.929688 585.675781 C 454.96875 580.738281 452.132812 575.730469 449.417969 570.652344 C 446.707031 565.578125 444.117188 560.4375 441.65625 555.234375 C 439.195312 550.027344 436.863281 544.765625 434.660156 539.449219 C 432.457031 534.128906 430.386719 528.761719 428.445312 523.339844 C 426.507812 517.921875 424.703125 512.457031 423.03125 506.949219 C 421.359375 501.4375 419.824219 495.894531 418.425781 490.308594 C 417.027344 484.722656 415.765625 479.109375 414.644531 473.464844 C 413.519531 467.816406 412.535156 462.148438 411.691406 456.453125 C 410.847656 450.757812 410.144531 445.046875 409.578125 439.316406 C 409.015625 433.589844 408.589844 427.847656 408.308594 422.101562 C 408.027344 416.351562 407.882812 410.597656 407.882812 404.839844 C 407.882812 399.082031 408.027344 393.332031 408.308594 387.582031 C 408.589844 381.832031 409.015625 376.089844 409.578125 370.363281 C 410.144531 364.632812 410.847656 358.921875 411.691406 353.226562 C 412.535156 347.535156 413.519531 341.863281 414.644531 336.21875 C 415.765625 330.570312 417.027344 324.957031 418.425781 319.371094 C 419.824219 313.789062 421.359375 308.242188 423.03125 302.734375 C 424.703125 297.222656 426.507812 291.757812 428.445312 286.339844 C 430.386719 280.917969 432.457031 275.550781 434.660156 270.230469 C 436.863281 264.914062 439.195312 259.652344 441.65625 254.449219 C 444.117188 249.242188 446.707031 244.101562 449.417969 239.027344 C 452.132812 233.949219 454.96875 228.941406 457.929688 224.003906 C 460.886719 219.066406 463.96875 214.203125 467.164062 209.417969 C 470.363281 204.632812 473.675781 199.925781 477.105469 195.304688 C 480.535156 190.679688 484.078125 186.140625 487.726562 181.691406 C 491.378906 177.242188 495.140625 172.886719 499.003906 168.621094 C 502.871094 164.355469 506.839844 160.1875 510.910156 156.117188 C 514.980469 152.042969 519.148438 148.078125 523.414062 144.210938 C 527.679688 140.34375 532.035156 136.585938 536.488281 132.933594 C 540.9375 129.28125 545.472656 125.742188 550.097656 122.3125 C 554.722656 118.882812 559.425781 115.570312 564.210938 112.371094 C 569 109.171875 573.863281 106.09375 578.800781 103.132812 C 583.738281 100.175781 588.742188 97.339844 593.820312 94.625 C 598.898438 91.910156 604.039062 89.324219 609.242188 86.863281 C 614.445312 84.402344 619.707031 82.070312 625.027344 79.867188 C 630.34375 77.664062 635.714844 75.589844 641.132812 73.652344 C 646.554688 71.710938 652.019531 69.90625 657.527344 68.238281 C 663.035156 66.566406 668.582031 65.03125 674.167969 63.632812 C 679.75 62.234375 685.367188 60.972656 691.011719 59.847656 C 696.65625 58.726562 702.328125 57.742188 708.023438 56.898438 C 713.714844 56.054688 719.429688 55.347656 725.15625 54.785156 C 730.886719 54.21875 736.625 53.796875 742.375 53.515625 C 748.125 53.230469 753.878906 53.089844 759.632812 53.089844 C 765.390625 53.089844 771.144531 53.230469 776.894531 53.515625 C 782.644531 53.796875 788.382812 54.21875 794.113281 54.785156 C 799.839844 55.347656 805.554688 56.054688 811.246094 56.898438 C 816.941406 57.742188 822.613281 58.726562 828.257812 59.847656 C 833.902344 60.972656 839.519531 62.234375 845.101562 63.632812 C 850.6875 65.03125 856.234375 66.566406 861.742188 68.238281 C 867.25 69.90625 872.714844 71.710938 878.136719 73.652344 C 883.554688 75.589844 888.925781 77.664062 894.242188 79.867188 C 899.5625 82.070312 904.824219 84.402344 910.027344 86.863281 C 915.230469 89.324219 920.371094 91.910156 925.449219 94.625 C 930.527344 97.339844 935.53125 100.175781 940.46875 103.132812 C 945.40625 106.09375 950.269531 109.171875 955.054688 112.371094 C 959.84375 115.570312 964.546875 118.882812 969.171875 122.3125 C 973.796875 125.742188 978.332031 129.28125 982.78125 132.933594 C 987.234375 136.585938 991.589844 140.34375 995.855469 144.210938 C 1000.121094 148.078125 1004.289062 152.042969 1008.359375 156.117188 C 1012.429688 160.1875 1016.398438 164.355469 1020.265625 168.621094 C 1024.128906 172.886719 1027.890625 177.242188 1031.542969 181.691406 C 1035.191406 186.140625 1038.734375 190.679688 1042.164062 195.304688 C 1045.59375 199.925781 1048.90625 204.632812 1052.105469 209.417969 C 1055.300781 214.203125 1058.382812 219.066406 1061.339844 224.003906 C 1064.300781 228.941406 1067.136719 233.949219 1069.851562 239.027344 C 1072.5625 244.101562 1075.152344 249.242188 1077.613281 254.449219 C 1080.074219 259.652344 1082.40625 264.914062 1084.609375 270.230469 C 1086.8125 275.550781 1088.882812 280.917969 1090.824219 286.339844 C 1092.761719 291.757812 1094.566406 297.222656 1096.238281 302.734375 C 1097.910156 308.242188 1099.445312 313.789062 1100.84375 319.371094 C 1102.242188 324.957031 1103.503906 330.570312 1104.625 336.21875 C 1105.75 341.863281 1106.734375 347.535156 1107.578125 353.226562 C 1108.421875 358.921875 1109.125 364.632812 1109.691406 370.363281 C 1110.253906 376.089844 1110.679688 381.832031 1110.960938 387.582031 C 1111.242188 393.332031 1111.382812 399.082031 1111.382812 404.839844 Z M 1111.382812 404.839844 " fill-opacity="1" fill-rule="nonzero"/></g><g clip-path="url(#id2)"><path fill="rgb(100%, 58.428955%, 10.978699%)" d="M 1051.128906 404.957031 C 1051.128906 409.726562 1051.011719 414.492188 1050.777344 419.253906 C 1050.542969 424.019531 1050.191406 428.773438 1049.726562 433.519531 C 1049.257812 438.265625 1048.671875 442.996094 1047.972656 447.710938 C 1047.273438 452.429688 1046.460938 457.125 1045.527344 461.804688 C 1044.597656 466.480469 1043.554688 471.132812 1042.394531 475.757812 C 1041.238281 480.382812 1039.964844 484.976562 1038.582031 489.539062 C 1037.195312 494.101562 1035.703125 498.628906 1034.09375 503.121094 C 1032.488281 507.609375 1030.773438 512.058594 1028.949219 516.460938 C 1027.125 520.867188 1025.191406 525.226562 1023.152344 529.539062 C 1021.113281 533.847656 1018.96875 538.105469 1016.722656 542.3125 C 1014.476562 546.515625 1012.125 550.664062 1009.671875 554.753906 C 1007.222656 558.84375 1004.671875 562.871094 1002.023438 566.835938 C 999.371094 570.800781 996.628906 574.699219 993.789062 578.53125 C 990.945312 582.359375 988.015625 586.117188 984.988281 589.804688 C 981.964844 593.492188 978.851562 597.101562 975.648438 600.632812 C 972.445312 604.167969 969.15625 607.621094 965.785156 610.992188 C 962.414062 614.363281 958.960938 617.652344 955.429688 620.851562 C 951.894531 624.054688 948.285156 627.167969 944.597656 630.195312 C 940.914062 633.21875 937.15625 636.152344 933.324219 638.992188 C 929.496094 641.832031 925.597656 644.578125 921.632812 647.226562 C 917.667969 649.878906 913.640625 652.425781 909.550781 654.878906 C 905.460938 657.332031 901.3125 659.679688 897.105469 661.929688 C 892.902344 664.175781 888.640625 666.320312 884.332031 668.359375 C 880.019531 670.398438 875.664062 672.328125 871.257812 674.152344 C 866.851562 675.980469 862.402344 677.695312 857.914062 679.300781 C 853.425781 680.90625 848.898438 682.402344 844.335938 683.785156 C 839.769531 685.171875 835.175781 686.441406 830.550781 687.601562 C 825.925781 688.761719 821.273438 689.804688 816.597656 690.734375 C 811.921875 691.664062 807.222656 692.480469 802.507812 693.179688 C 797.789062 693.878906 793.058594 694.464844 788.3125 694.929688 C 783.566406 695.398438 778.8125 695.75 774.050781 695.980469 C 769.285156 696.214844 764.519531 696.332031 759.753906 696.332031 C 754.984375 696.332031 750.21875 696.214844 745.457031 695.984375 C 740.691406 695.75 735.9375 695.398438 731.191406 694.929688 C 726.449219 694.464844 721.714844 693.878906 717 693.179688 C 712.28125 692.480469 707.585938 691.664062 702.910156 690.734375 C 698.230469 689.804688 693.578125 688.761719 688.953125 687.601562 C 684.328125 686.441406 679.734375 685.171875 675.171875 683.785156 C 670.609375 682.402344 666.082031 680.90625 661.589844 679.300781 C 657.101562 677.695312 652.652344 675.980469 648.25 674.152344 C 643.84375 672.328125 639.484375 670.398438 635.175781 668.359375 C 630.863281 666.320312 626.605469 664.175781 622.398438 661.929688 C 618.195312 659.679688 614.046875 657.332031 609.957031 654.878906 C 605.867188 652.425781 601.839844 649.878906 597.875 647.226562 C 593.910156 644.578125 590.011719 641.832031 586.179688 638.992188 C 582.351562 636.152344 578.59375 633.21875 574.90625 630.195312 C 571.21875 627.167969 567.609375 624.054688 564.078125 620.851562 C 560.542969 617.652344 557.089844 614.363281 553.71875 610.992188 C 550.347656 607.621094 547.058594 604.167969 543.859375 600.632812 C 540.65625 597.101562 537.542969 593.492188 534.515625 589.804688 C 531.492188 586.117188 528.558594 582.359375 525.71875 578.53125 C 522.878906 574.699219 520.132812 570.800781 517.484375 566.835938 C 514.835938 562.871094 512.285156 558.84375 509.832031 554.753906 C 507.378906 550.664062 505.03125 546.515625 502.78125 542.3125 C 500.535156 538.105469 498.390625 533.847656 496.351562 529.539062 C 494.3125 525.226562 492.382812 520.867188 490.558594 516.460938 C 488.734375 512.058594 487.015625 507.609375 485.410156 503.121094 C 483.804688 498.628906 482.308594 494.101562 480.925781 489.539062 C 479.539062 484.976562 478.269531 480.382812 477.109375 475.757812 C 475.953125 471.132812 474.90625 466.480469 473.976562 461.804688 C 473.046875 457.125 472.230469 452.429688 471.53125 447.710938 C 470.832031 442.996094 470.25 438.265625 469.78125 433.519531 C 469.3125 428.773438 468.960938 424.019531 468.730469 419.253906 C 468.496094 414.492188 468.378906 409.726562 468.378906 404.957031 C 468.378906 400.191406 468.496094 395.425781 468.730469 390.660156 C 468.960938 385.898438 469.3125 381.144531 469.78125 376.398438 C 470.25 371.652344 470.832031 366.921875 471.53125 362.203125 C 472.230469 357.488281 473.046875 352.789062 473.976562 348.113281 C 474.90625 343.4375 475.953125 338.785156 477.109375 334.160156 C 478.269531 329.535156 479.539062 324.941406 480.925781 320.375 C 482.308594 315.8125 483.804688 311.285156 485.410156 306.796875 C 487.015625 302.308594 488.734375 297.859375 490.558594 293.453125 C 492.382812 289.046875 494.3125 284.691406 496.351562 280.378906 C 498.390625 276.070312 500.535156 271.8125 502.78125 267.605469 C 505.03125 263.398438 507.378906 259.25 509.832031 255.160156 C 512.285156 251.070312 514.835938 247.042969 517.484375 243.078125 C 520.132812 239.113281 522.878906 235.214844 525.71875 231.386719 C 528.558594 227.554688 531.492188 223.796875 534.515625 220.113281 C 537.542969 216.425781 540.65625 212.816406 543.859375 209.28125 C 547.058594 205.75 550.347656 202.296875 553.71875 198.925781 C 557.089844 195.554688 560.542969 192.265625 564.078125 189.0625 C 567.609375 185.863281 571.21875 182.746094 574.90625 179.722656 C 578.59375 176.699219 582.351562 173.765625 586.179688 170.921875 C 590.011719 168.082031 593.910156 165.339844 597.875 162.6875 C 601.839844 160.039062 605.867188 157.488281 609.957031 155.039062 C 614.046875 152.585938 618.195312 150.238281 622.398438 147.988281 C 626.605469 145.742188 630.863281 143.597656 635.175781 141.558594 C 639.484375 139.519531 643.84375 137.585938 648.25 135.761719 C 652.652344 133.9375 657.101562 132.222656 661.589844 130.617188 C 666.082031 129.007812 670.609375 127.515625 675.171875 126.128906 C 679.734375 124.746094 684.328125 123.472656 688.953125 122.316406 C 693.578125 121.15625 698.230469 120.113281 702.910156 119.183594 C 707.585938 118.25 712.28125 117.4375 717 116.738281 C 721.714844 116.039062 726.449219 115.453125 731.191406 114.988281 C 735.9375 114.519531 740.691406 114.167969 745.457031 113.933594 C 750.21875 113.699219 754.984375 113.582031 759.753906 113.582031 C 764.519531 113.582031 769.285156 113.699219 774.050781 113.933594 C 778.8125 114.167969 783.566406 114.519531 788.3125 114.988281 C 793.058594 115.453125 797.789062 116.039062 802.507812 116.738281 C 807.222656 117.4375 811.921875 118.25 816.597656 119.183594 C 821.273438 120.113281 825.925781 121.15625 830.550781 122.316406 C 835.175781 123.472656 839.769531 124.746094 844.335938 126.128906 C 848.898438 127.515625 853.425781 129.007812 857.914062 130.617188 C 862.402344 132.222656 866.851562 133.9375 871.257812 135.761719 C 875.664062 137.585938 880.019531 139.519531 884.332031 141.558594 C 888.640625 143.597656 892.902344 145.742188 897.105469 147.988281 C 901.3125 150.238281 905.460938 152.585938 909.550781 155.039062 C 913.640625 157.488281 917.667969 160.039062 921.632812 162.6875 C 925.597656 165.339844 929.496094 168.082031 933.324219 170.921875 C 937.15625 173.765625 940.914062 176.699219 944.597656 179.722656 C 948.285156 182.746094 951.894531 185.863281 955.429688 189.0625 C 958.960938 192.265625 962.414062 195.554688 965.785156 198.925781 C 969.15625 202.296875 972.445312 205.75 975.648438 209.28125 C 978.851562 212.816406 981.964844 216.425781 984.988281 220.113281 C 988.015625 223.796875 990.945312 227.554688 993.789062 231.386719 C 996.628906 235.214844 999.371094 239.113281 1002.023438 243.078125 C 1004.671875 247.042969 1007.222656 251.070312 1009.671875 255.160156 C 1012.125 259.25 1014.476562 263.398438 1016.722656 267.605469 C 1018.96875 271.8125 1021.113281 276.070312 1023.152344 280.378906 C 1025.191406 284.691406 1027.125 289.046875 1028.949219 293.453125 C 1030.773438 297.859375 1032.488281 302.308594 1034.09375 306.796875 C 1035.703125 311.285156 1037.195312 315.8125 1038.582031 320.375 C 1039.964844 324.941406 1041.238281 329.535156 1042.394531 334.160156 C 1043.554688 338.785156 1044.597656 343.4375 1045.527344 348.113281 C 1046.460938 352.789062 1047.273438 357.488281 1047.972656 362.203125 C 1048.671875 366.921875 1049.257812 371.652344 1049.726562 376.398438 C 1050.191406 381.144531 1050.542969 385.898438 1050.777344 390.660156 C 1051.011719 395.425781 1051.128906 400.191406 1051.128906 404.957031 Z M 1051.128906 404.957031 " fill-opacity="1" fill-rule="nonzero"/></g><g clip-path="url(#id3)"><path fill="rgb(100%, 100%, 100%)" d="M 811.105469 307.519531 C 803.960938 305.726562 794.207031 303.957031 783.515625 303.957031 C 724.8125 303.957031 678.554688 361.734375 678.554688 430.210938 C 678.554688 463.972656 693.6875 485.320312 723.027344 485.320312 C 755.957031 485.320312 790.648438 443.53125 798.597656 391.988281 Z M 890.273438 674.695312 C 836.886719 698.667969 790.648438 706.683594 726.605469 706.683594 C 578.890625 706.683594 449.042969 600.871094 449.042969 426.644531 C 449.042969 245.300781 581.59375 87.960938 781.742188 87.960938 C 939.191406 87.960938 1051.285156 195.496094 1051.285156 344.878906 C 1051.285156 475.523438 978.324219 557.320312 882.273438 557.320312 C 840.433594 557.320312 810.207031 535.097656 805.765625 488.875 L 803.960938 488.875 C 775.503906 533.335938 736.378906 557.320312 688.359375 557.320312 C 631.398438 557.320312 588.726562 513.757812 588.726562 440.863281 C 588.726562 331.527344 669.65625 233.742188 797.742188 233.742188 C 836.886719 233.742188 881.363281 243.507812 903.601562 255.066406 L 876.929688 420.445312 C 868.011719 472.875 874.25 496.871094 899.136719 497.777344 C 937.386719 499.53125 985.429688 450.652344 985.429688 347.539062 C 985.429688 231.082031 910.734375 142.1875 772.835938 142.1875 C 635.851562 142.1875 517.546875 247.949219 517.546875 418.660156 C 517.546875 567.996094 611.839844 651.550781 744.359375 651.550781 C 789.742188 651.550781 838.691406 641.765625 874.25 624.003906 L 890.273438 674.695312 " fill-opacity="1" fill-rule="nonzero"/></g><g clip-path="url(#id4)"><path fill="rgb(28.62854%, 30.979919%, 33.729553%)" d="M 615.488281 598.320312 L 615.488281 613.066406 L 477.050781 613.066406 L 477.050781 598.320312 Z M 615.488281 540.792969 L 615.488281 595.296875 L 477.050781 595.296875 L 477.050781 540.792969 Z M 615.488281 481.382812 L 615.488281 537.792969 L 477.050781 537.792969 L 477.050781 481.382812 Z M 615.488281 430.433594 L 615.488281 478.382812 L 477.050781 478.382812 L 477.050781 430.433594 Z M 477.050781 410.683594 L 615.488281 410.683594 L 615.488281 427.40625 L 477.050781 427.40625 Z M 474.035156 598.320312 L 474.035156 613.066406 L 457.375 613.066406 L 457.375 598.320312 Z M 474.035156 540.792969 L 474.035156 595.296875 L 457.375 595.296875 L 457.375 540.792969 Z M 474.035156 481.382812 L 474.035156 537.792969 L 457.375 537.792969 L 457.375 481.382812 Z M 474.035156 430.433594 L 474.035156 478.382812 L 457.375 478.382812 L 457.375 430.433594 Z M 510.726562 450.964844 C 509.96875 450.203125 508.925781 449.726562 507.761719 449.726562 C 506.625 449.726562 505.578125 450.203125 504.820312 450.964844 C 504.058594 451.726562 503.585938 452.777344 503.585938 453.917969 L 503.585938 469.140625 L 511.960938 469.140625 L 511.960938 453.917969 C 511.960938 452.777344 511.488281 451.726562 510.726562 450.964844 Z M 510.445312 501.84375 C 509.707031 501.109375 508.6875 500.632812 507.570312 500.632812 C 506.433594 500.632812 505.410156 501.109375 504.675781 501.84375 C 503.941406 502.585938 503.488281 503.609375 503.488281 504.730469 L 503.488281 525.3125 L 511.628906 525.3125 L 511.628906 504.730469 C 511.628906 503.609375 511.179688 502.585938 510.445312 501.84375 Z M 499.148438 501.84375 C 498.386719 501.109375 497.390625 500.632812 496.25 500.632812 C 495.136719 500.632812 494.113281 501.109375 493.378906 501.84375 C 492.644531 502.585938 492.191406 503.609375 492.191406 504.730469 L 492.191406 525.3125 L 500.332031 525.3125 L 500.332031 504.730469 C 500.332031 503.609375 499.882812 502.585938 499.148438 501.84375 Z M 501.972656 492.605469 C 508.546875 492.605469 513.933594 497.988281 513.933594 504.585938 L 513.933594 525.59375 C 513.933594 526.214844 513.882812 526.835938 513.789062 527.429688 L 490.175781 527.429688 C 490.082031 526.835938 490.035156 526.214844 490.035156 525.59375 L 490.035156 504.585938 C 490.035156 497.988281 495.394531 492.605469 501.972656 492.605469 Z M 501.972656 550.230469 C 505.671875 550.230469 508.6875 553.25 508.6875 556.945312 L 508.6875 575.546875 L 495.277344 575.546875 L 495.277344 556.945312 C 495.277344 553.25 498.292969 550.230469 501.972656 550.230469 Z M 499.121094 450.964844 C 498.363281 450.203125 497.320312 449.726562 496.179688 449.726562 C 495.015625 449.726562 493.972656 450.203125 493.214844 450.964844 C 492.453125 451.726562 492.003906 452.777344 492.003906 453.917969 L 492.003906 469.140625 L 500.355469 469.140625 L 500.355469 453.917969 C 500.355469 452.777344 499.882812 451.726562 499.121094 450.964844 Z M 554.753906 450.964844 C 554.019531 450.203125 552.949219 449.726562 551.8125 449.726562 C 550.671875 449.726562 549.628906 450.203125 548.867188 450.964844 C 548.109375 451.726562 547.632812 452.777344 547.632812 453.917969 L 547.632812 469.140625 L 555.988281 469.140625 L 555.988281 453.917969 C 555.988281 452.777344 555.511719 451.726562 554.753906 450.964844 Z M 554.46875 501.84375 C 553.734375 501.109375 552.714844 500.632812 551.597656 500.632812 C 550.484375 500.632812 549.460938 501.109375 548.726562 501.84375 C 547.988281 502.585938 547.515625 503.609375 547.515625 504.730469 L 547.515625 525.3125 L 555.679688 525.3125 L 555.679688 504.730469 C 555.679688 503.609375 555.230469 502.585938 554.46875 501.84375 Z M 543.171875 501.84375 C 542.4375 501.109375 541.417969 500.632812 540.300781 500.632812 C 539.183594 500.632812 538.164062 501.109375 537.429688 501.84375 C 536.691406 502.585938 536.21875 503.609375 536.21875 504.730469 L 536.21875 525.3125 L 544.382812 525.3125 L 544.382812 504.730469 C 544.382812 503.609375 543.910156 502.585938 543.171875 501.84375 Z M 546.019531 492.605469 C 552.59375 492.605469 557.957031 497.988281 557.957031 504.585938 L 557.957031 525.59375 C 557.957031 526.214844 557.910156 526.835938 557.816406 527.429688 L 534.203125 527.429688 C 534.105469 526.835938 534.058594 526.214844 534.058594 525.59375 L 534.058594 504.585938 C 534.058594 497.988281 539.445312 492.605469 546.019531 492.605469 Z M 546.019531 550.230469 C 549.699219 550.230469 552.714844 553.25 552.714844 556.945312 L 552.714844 575.546875 L 539.304688 575.546875 L 539.304688 556.945312 C 539.304688 553.25 542.316406 550.230469 546.019531 550.230469 Z M 543.171875 450.964844 C 542.414062 450.203125 541.367188 449.726562 540.207031 449.726562 C 539.066406 449.726562 538.023438 450.203125 537.261719 450.964844 C 536.503906 451.726562 536.027344 452.777344 536.027344 453.917969 L 536.027344 469.140625 L 544.40625 469.140625 L 544.40625 453.917969 C 544.40625 452.777344 543.933594 451.726562 543.171875 450.964844 Z M 598.828125 450.726562 C 598.066406 449.964844 597.023438 449.488281 595.882812 449.488281 C 594.722656 449.488281 593.679688 449.964844 592.917969 450.726562 C 592.160156 451.488281 591.707031 452.539062 591.707031 453.679688 L 591.707031 468.925781 L 600.0625 468.925781 L 600.0625 453.679688 C 600.0625 452.539062 599.585938 451.488281 598.828125 450.726562 Z M 598.542969 501.609375 C 597.808594 500.871094 596.785156 500.394531 595.671875 500.394531 C 594.554688 500.394531 593.535156 500.871094 592.800781 501.609375 C 592.039062 502.347656 591.589844 503.371094 591.589844 504.492188 L 591.589844 525.074219 L 599.753906 525.074219 L 599.753906 504.492188 C 599.753906 503.371094 599.277344 502.347656 598.542969 501.609375 Z M 587.246094 501.609375 C 586.511719 500.871094 585.488281 500.394531 584.375 500.394531 C 583.234375 500.394531 582.214844 500.871094 581.476562 501.609375 C 580.742188 502.347656 580.292969 503.371094 580.292969 504.492188 L 580.292969 525.074219 L 588.433594 525.074219 L 588.433594 504.492188 C 588.433594 503.371094 587.980469 502.347656 587.246094 501.609375 Z M 590.070312 492.367188 C 596.644531 492.367188 602.03125 497.75 602.03125 504.347656 L 602.03125 525.359375 C 602.03125 525.976562 601.984375 526.597656 601.890625 527.195312 L 578.273438 527.195312 C 578.179688 526.597656 578.132812 525.976562 578.132812 525.359375 L 578.132812 504.347656 C 578.132812 497.75 583.519531 492.367188 590.070312 492.367188 Z M 590.070312 549.988281 C 593.773438 549.988281 596.785156 553.015625 596.785156 556.707031 L 596.785156 575.3125 L 583.378906 575.3125 L 583.378906 556.707031 C 583.378906 553.015625 586.390625 549.988281 590.070312 549.988281 Z M 587.246094 450.726562 C 586.488281 449.964844 585.441406 449.488281 584.28125 449.488281 C 583.140625 449.488281 582.097656 449.964844 581.335938 450.726562 C 580.578125 451.488281 580.101562 452.539062 580.101562 453.679688 L 580.101562 468.925781 L 588.457031 468.925781 L 588.457031 453.679688 C 588.457031 452.539062 588.003906 451.488281 587.246094 450.726562 Z M 687.285156 260.160156 L 730.738281 260.160156 C 725.566406 261.207031 720.652344 262.519531 716.046875 264.066406 C 703.707031 268.210938 693.691406 274.144531 687.285156 281.144531 Z M 689.300781 257.085938 C 690.296875 247.488281 695.898438 223.546875 726.679688 214.710938 C 726.917969 214.636719 727.15625 214.589844 727.390625 214.519531 C 710.234375 224.976562 705.371094 245.296875 704.015625 257.085938 Z M 618.476562 526.214844 L 618.476562 410.519531 L 639.648438 410.519531 L 639.648438 526.214844 Z M 639.648438 537.792969 L 639.648438 529.242188 L 618.476562 529.242188 L 618.476562 537.792969 Z M 680.707031 469.738281 L 680.707031 519.878906 L 681.015625 519.878906 C 682.679688 519.878906 684.007812 521.140625 684.007812 522.667969 L 667.015625 522.667969 C 667.015625 521.140625 668.34375 519.878906 669.980469 519.878906 L 670.3125 519.878906 L 670.3125 416.664062 L 669.980469 416.664062 C 668.34375 416.664062 667.015625 415.402344 667.015625 413.875 L 684.007812 413.875 C 684.007812 415.402344 682.679688 416.664062 681.015625 416.664062 L 680.707031 416.664062 Z M 736.746094 469.738281 L 736.746094 519.878906 L 737.050781 519.878906 C 738.714844 519.878906 740.042969 521.140625 740.042969 522.667969 L 723.050781 522.667969 C 723.050781 521.140625 724.378906 519.878906 726.015625 519.878906 L 726.347656 519.878906 L 726.347656 416.664062 L 726.015625 416.664062 C 724.378906 416.664062 723.050781 415.402344 723.050781 413.875 L 740.042969 413.875 C 740.042969 415.402344 738.714844 416.664062 737.050781 416.664062 L 736.746094 416.664062 Z M 705.460938 450.632812 C 704.941406 450.105469 704.226562 449.773438 703.421875 449.773438 C 702.617188 449.773438 701.878906 450.105469 701.355469 450.632812 C 700.835938 451.15625 700.503906 451.871094 700.503906 452.679688 C 700.503906 453.492188 700.835938 454.230469 701.355469 454.753906 C 701.878906 455.277344 702.617188 455.609375 703.421875 455.609375 C 704.226562 455.609375 704.941406 455.277344 705.460938 454.753906 C 705.984375 454.230469 706.316406 453.492188 706.316406 452.679688 C 706.316406 451.871094 705.984375 451.15625 705.460938 450.632812 Z M 699.625 455.945312 L 690.867188 455.945312 C 692.882812 453.132812 695.804688 451.011719 699.195312 450.035156 C 698.722656 450.824219 698.4375 451.726562 698.4375 452.679688 C 698.4375 453.917969 698.890625 455.0625 699.625 455.945312 Z M 717.875 461.660156 C 716.617188 460.421875 714.882812 459.636719 712.988281 459.636719 C 711.085938 459.636719 709.378906 460.421875 708.121094 461.660156 C 706.863281 462.921875 706.078125 464.664062 706.078125 466.570312 L 706.078125 501.464844 L 719.914062 501.464844 L 719.914062 466.570312 C 719.914062 464.664062 719.132812 462.921875 717.875 461.660156 Z M 698.722656 461.660156 C 697.464844 460.421875 695.730469 459.636719 693.832031 459.636719 C 691.933594 459.636719 690.199219 460.421875 688.945312 461.660156 C 687.710938 462.921875 686.925781 464.664062 686.925781 466.570312 L 686.925781 501.464844 L 700.742188 501.464844 L 700.742188 466.570312 C 700.742188 464.664062 699.957031 462.921875 698.722656 461.660156 Z M 707.648438 450.035156 C 711.015625 451.011719 713.9375 453.132812 715.953125 455.945312 L 707.195312 455.945312 C 707.933594 455.0625 708.382812 453.917969 708.382812 452.679688 C 708.382812 451.726562 708.121094 450.824219 707.648438 450.035156 Z M 703.515625 446.011719 C 714.671875 446.011719 723.785156 455.160156 723.785156 466.328125 L 723.785156 501.941406 C 723.785156 502.992188 723.691406 504.039062 723.546875 505.039062 L 683.507812 505.039062 C 683.34375 504.039062 683.273438 502.992188 683.273438 501.941406 L 683.273438 466.328125 C 683.273438 455.160156 692.386719 446.011719 703.515625 446.011719 Z M 755.660156 455.945312 L 746.902344 455.945312 C 748.917969 453.132812 751.839844 451.011719 755.234375 450.035156 C 754.757812 450.824219 754.472656 451.726562 754.472656 452.679688 C 754.472656 453.917969 754.925781 455.0625 755.660156 455.945312 Z M 754.757812 461.660156 C 753.5 460.421875 751.769531 459.636719 749.867188 459.636719 C 747.96875 459.636719 746.234375 460.421875 745.003906 461.660156 C 743.746094 462.921875 742.960938 464.664062 742.960938 466.570312 L 742.960938 501.464844 L 756.773438 501.464844 L 756.773438 466.570312 C 756.773438 464.664062 756.015625 462.921875 754.757812 461.660156 Z M 642.78125 598.320312 L 642.78125 613.066406 L 618.476562 613.066406 L 618.476562 598.320312 Z M 688.136719 598.320312 L 688.136719 613.066406 L 661.769531 613.066406 L 661.769531 598.320312 Z M 744.003906 598.320312 L 744.003906 613.066406 L 718.207031 613.066406 L 718.207031 598.320312 Z M 660.558594 505.039062 L 663.882812 505.039062 L 663.882812 474.5 C 663.882812 470.425781 660.558594 467.070312 656.476562 467.070312 C 652.421875 467.070312 649.070312 470.425781 649.070312 474.5 L 649.070312 505.039062 Z M 658.183594 478.882812 C 659.585938 479.574219 660.558594 481.003906 660.558594 482.671875 L 660.558594 502.039062 L 652.226562 502.039062 L 652.226562 482.671875 C 652.226562 481.003906 653.203125 479.574219 654.601562 478.882812 C 653.816406 478.335938 653.320312 477.429688 653.320312 476.40625 C 653.320312 474.691406 654.695312 473.308594 656.382812 473.308594 C 658.089844 473.308594 659.46875 474.691406 659.46875 476.40625 C 659.46875 477.429688 658.945312 478.335938 658.183594 478.882812 Z M 378.886719 497.226562 C 377.417969 497.226562 376.085938 497.820312 375.136719 498.773438 C 374.164062 499.75 373.570312 501.082031 373.570312 502.539062 L 373.570312 522.238281 L 384.203125 522.238281 L 384.203125 502.539062 C 384.203125 501.082031 383.585938 499.75 382.636719 498.773438 C 381.664062 497.820312 380.335938 497.226562 378.886719 497.226562 Z M 429.109375 498.773438 C 428.160156 497.820312 426.828125 497.226562 425.359375 497.226562 C 423.910156 497.226562 422.582031 497.820312 421.609375 498.773438 C 420.660156 499.75 420.066406 501.082031 420.066406 502.539062 L 420.066406 522.238281 L 430.675781 522.238281 L 430.675781 502.539062 C 430.675781 501.082031 430.082031 499.75 429.109375 498.773438 Z M 444.628906 498.773438 C 443.65625 497.820312 442.328125 497.226562 440.878906 497.226562 C 439.410156 497.226562 438.078125 497.820312 437.128906 498.773438 C 436.15625 499.75 435.5625 501.082031 435.5625 502.539062 L 435.5625 522.238281 L 446.171875 522.238281 L 446.171875 502.539062 C 446.171875 501.082031 445.578125 499.75 444.628906 498.773438 Z M 398.136719 498.773438 C 397.164062 497.820312 395.832031 497.226562 394.386719 497.226562 C 392.9375 497.226562 391.609375 497.820312 390.636719 498.773438 C 389.6875 499.75 389.070312 501.082031 389.070312 502.539062 L 389.070312 522.238281 L 399.703125 522.238281 L 399.703125 502.539062 C 399.703125 501.082031 399.109375 499.75 398.136719 498.773438 Z M 363.390625 497.226562 C 361.941406 497.226562 360.613281 497.820312 359.640625 498.773438 C 358.691406 499.75 358.074219 501.082031 358.074219 502.539062 L 358.074219 522.238281 L 368.707031 522.238281 L 368.707031 502.539062 C 368.707031 501.082031 368.113281 499.75 367.140625 498.773438 C 366.167969 497.820312 364.863281 497.226562 363.390625 497.226562 Z M 413.632812 498.773438 C 412.660156 497.820312 411.332031 497.226562 409.882812 497.226562 C 408.414062 497.226562 407.085938 497.820312 406.136719 498.773438 C 405.160156 499.75 404.566406 501.082031 404.566406 502.539062 L 404.566406 522.238281 L 415.175781 522.238281 L 415.175781 502.539062 C 415.175781 501.082031 414.585938 499.75 413.632812 498.773438 Z M 349.839844 537.792969 L 349.839844 482.574219 L 454.410156 482.574219 L 454.410156 537.792969 Z M 454.410156 540.792969 L 454.410156 613.066406 L 446.601562 613.066406 L 446.601562 562.375 C 446.601562 555.203125 440.761719 549.324219 433.59375 549.324219 C 426.449219 549.324219 420.613281 555.203125 420.613281 562.375 L 420.613281 613.066406 L 415.128906 613.066406 L 415.128906 562.375 C 415.128906 555.203125 409.265625 549.324219 402.125 549.324219 C 394.980469 549.324219 389.117188 555.203125 389.117188 562.375 L 389.117188 613.066406 L 383.660156 613.066406 L 383.660156 562.375 C 383.660156 555.203125 377.796875 549.324219 370.652344 549.324219 C 363.507812 549.324219 357.648438 555.203125 357.648438 562.375 L 357.648438 613.066406 L 349.839844 613.066406 L 349.839844 540.792969 Z M 903.421875 598.320312 L 903.421875 613.066406 L 1041.863281 613.066406 L 1041.863281 598.320312 Z M 903.421875 540.792969 L 903.421875 595.296875 L 1041.863281 595.296875 L 1041.863281 540.792969 Z M 903.421875 481.382812 L 903.421875 537.792969 L 1041.863281 537.792969 L 1041.863281 481.382812 Z M 903.421875 430.433594 L 903.421875 478.382812 L 1041.863281 478.382812 L 1041.863281 430.433594 Z M 1041.863281 410.683594 L 903.421875 410.683594 L 903.421875 427.40625 L 1041.863281 427.40625 Z M 1044.855469 598.320312 L 1044.855469 613.066406 L 1061.515625 613.066406 L 1061.515625 598.320312 Z M 1044.855469 540.792969 L 1044.855469 595.296875 L 1061.515625 595.296875 L 1061.515625 540.792969 Z M 1044.855469 481.382812 L 1044.855469 537.792969 L 1061.515625 537.792969 L 1061.515625 481.382812 Z M 1044.855469 430.433594 L 1044.855469 478.382812 L 1061.515625 478.382812 L 1061.515625 430.433594 Z M 1008.183594 450.964844 C 1008.945312 450.203125 1009.988281 449.726562 1011.128906 449.726562 C 1012.289062 449.726562 1013.335938 450.203125 1014.09375 450.964844 C 1014.855469 451.726562 1015.304688 452.777344 1015.304688 453.917969 L 1015.304688 469.140625 L 1006.953125 469.140625 L 1006.953125 453.917969 C 1006.953125 452.777344 1007.425781 451.726562 1008.183594 450.964844 Z M 1008.46875 501.84375 C 1009.203125 501.109375 1010.226562 500.632812 1011.339844 500.632812 C 1012.457031 500.632812 1013.476562 501.109375 1014.214844 501.84375 C 1014.972656 502.585938 1015.425781 503.609375 1015.425781 504.730469 L 1015.425781 525.3125 L 1007.257812 525.3125 L 1007.257812 504.730469 C 1007.257812 503.609375 1007.738281 502.585938 1008.46875 501.84375 Z M 1019.769531 501.84375 C 1020.503906 501.109375 1021.523438 500.632812 1022.636719 500.632812 C 1023.78125 500.632812 1024.800781 501.109375 1025.535156 501.84375 C 1026.269531 502.585938 1026.71875 503.609375 1026.71875 504.730469 L 1026.71875 525.3125 L 1018.582031 525.3125 L 1018.582031 504.730469 C 1018.582031 503.609375 1019.03125 502.585938 1019.769531 501.84375 Z M 1016.945312 492.605469 C 1010.371094 492.605469 1004.980469 497.988281 1004.980469 504.585938 L 1004.980469 525.59375 C 1004.980469 526.214844 1005.027344 526.835938 1005.125 527.429688 L 1028.742188 527.429688 C 1028.832031 526.835938 1028.882812 526.214844 1028.882812 525.59375 L 1028.882812 504.585938 C 1028.882812 497.988281 1023.492188 492.605469 1016.945312 492.605469 Z M 1016.945312 550.230469 C 1013.242188 550.230469 1010.226562 553.25 1010.226562 556.945312 L 1010.226562 575.546875 L 1023.632812 575.546875 L 1023.632812 556.945312 C 1023.632812 553.25 1020.625 550.230469 1016.945312 550.230469 Z M 1019.769531 450.964844 C 1020.527344 450.203125 1021.574219 449.726562 1022.734375 449.726562 C 1023.871094 449.726562 1024.914062 450.203125 1025.675781 450.964844 C 1026.433594 451.726562 1026.910156 452.777344 1026.910156 453.917969 L 1026.910156 469.140625 L 1018.558594 469.140625 L 1018.558594 453.917969 C 1018.558594 452.777344 1019.003906 451.726562 1019.769531 450.964844 Z M 964.136719 450.964844 C 964.894531 450.203125 965.941406 449.726562 967.101562 449.726562 C 968.242188 449.726562 969.28125 450.203125 970.046875 450.964844 C 970.804688 451.726562 971.277344 452.777344 971.277344 453.917969 L 971.277344 469.140625 L 962.898438 469.140625 L 962.898438 453.917969 C 962.898438 452.777344 963.378906 451.726562 964.136719 450.964844 Z M 964.421875 501.84375 C 965.15625 501.109375 966.175781 500.632812 967.292969 500.632812 C 968.433594 500.632812 969.453125 501.109375 970.1875 501.84375 C 970.921875 502.585938 971.375 503.609375 971.375 504.730469 L 971.375 525.3125 L 963.238281 525.3125 L 963.238281 504.730469 C 963.238281 503.609375 963.683594 502.585938 964.421875 501.84375 Z M 975.714844 501.84375 C 976.476562 501.109375 977.476562 500.632812 978.617188 500.632812 C 979.726562 500.632812 980.746094 501.109375 981.484375 501.84375 C 982.21875 502.585938 982.671875 503.609375 982.671875 504.730469 L 982.671875 525.3125 L 974.53125 525.3125 L 974.53125 504.730469 C 974.53125 503.609375 974.980469 502.585938 975.714844 501.84375 Z M 972.890625 492.605469 C 966.324219 492.605469 960.933594 497.988281 960.933594 504.585938 L 960.933594 525.59375 C 960.933594 526.214844 960.980469 526.835938 961.074219 527.429688 L 984.6875 527.429688 C 984.78125 526.835938 984.832031 526.214844 984.832031 525.59375 L 984.832031 504.585938 C 984.832031 497.988281 979.464844 492.605469 972.890625 492.605469 Z M 972.890625 550.230469 C 969.191406 550.230469 966.175781 553.25 966.175781 556.945312 L 966.175781 575.546875 L 979.609375 575.546875 L 979.609375 556.945312 C 979.609375 553.25 976.570312 550.230469 972.890625 550.230469 Z M 975.742188 450.964844 C 976.5 450.203125 977.546875 449.726562 978.6875 449.726562 C 979.847656 449.726562 980.894531 450.203125 981.652344 450.964844 C 982.410156 451.726562 982.859375 452.777344 982.859375 453.917969 L 982.859375 469.140625 L 974.511719 469.140625 L 974.511719 453.917969 C 974.511719 452.777344 974.980469 451.726562 975.742188 450.964844 Z M 920.082031 450.726562 C 920.824219 449.964844 921.886719 449.488281 923.027344 449.488281 C 924.171875 449.488281 925.214844 449.964844 925.972656 450.726562 C 926.734375 451.488281 927.207031 452.539062 927.207031 453.679688 L 927.207031 468.925781 L 918.851562 468.925781 L 918.851562 453.679688 C 918.851562 452.539062 919.324219 451.488281 920.082031 450.726562 Z M 920.347656 501.609375 C 921.109375 500.871094 922.128906 500.394531 923.238281 500.394531 C 924.355469 500.394531 925.382812 500.871094 926.113281 501.609375 C 926.847656 502.347656 927.324219 503.371094 927.324219 504.492188 L 927.324219 525.074219 L 919.160156 525.074219 L 919.160156 504.492188 C 919.160156 503.371094 919.609375 502.347656 920.347656 501.609375 Z M 931.667969 501.609375 C 932.402344 500.871094 933.421875 500.394531 934.539062 500.394531 C 935.652344 500.394531 936.675781 500.871094 937.414062 501.609375 C 938.148438 502.347656 938.625 503.371094 938.625 504.492188 L 938.625 525.074219 L 930.457031 525.074219 L 930.457031 504.492188 C 930.457031 503.371094 930.933594 502.347656 931.667969 501.609375 Z M 928.824219 492.367188 C 922.246094 492.367188 916.882812 497.75 916.882812 504.347656 L 916.882812 525.359375 C 916.882812 525.976562 916.925781 526.597656 917.023438 527.195312 L 940.640625 527.195312 C 940.734375 526.597656 940.78125 525.976562 940.78125 525.359375 L 940.78125 504.347656 C 940.78125 497.75 935.394531 492.367188 928.824219 492.367188 Z M 928.824219 549.988281 C 925.144531 549.988281 922.128906 553.015625 922.128906 556.707031 L 922.128906 575.3125 L 935.535156 575.3125 L 935.535156 556.707031 C 935.535156 553.015625 932.523438 549.988281 928.824219 549.988281 Z M 931.667969 450.726562 C 932.425781 449.964844 933.472656 449.488281 934.613281 449.488281 C 935.773438 449.488281 936.820312 449.964844 937.578125 450.726562 C 938.339844 451.488281 938.808594 452.539062 938.808594 453.679688 L 938.808594 468.925781 L 930.433594 468.925781 L 930.433594 453.679688 C 930.433594 452.539062 930.910156 451.488281 931.667969 450.726562 Z M 831.632812 260.160156 L 788.152344 260.160156 C 793.347656 261.207031 798.261719 262.519531 802.839844 264.066406 C 815.183594 268.210938 825.199219 274.144531 831.632812 281.144531 Z M 829.613281 257.085938 C 828.617188 247.488281 822.992188 223.546875 792.234375 214.710938 C 791.996094 214.636719 791.757812 214.589844 791.519531 214.519531 C 808.679688 224.976562 813.546875 245.296875 814.898438 257.085938 Z M 900.410156 526.214844 L 900.410156 410.519531 L 879.242188 410.519531 L 879.242188 526.214844 Z M 879.242188 537.792969 L 879.242188 529.242188 L 900.410156 529.242188 L 900.410156 537.792969 Z M 838.207031 469.738281 L 838.207031 519.878906 L 837.875 519.878906 C 836.234375 519.878906 834.90625 521.140625 834.90625 522.667969 L 851.902344 522.667969 C 851.902344 521.140625 850.546875 519.878906 848.910156 519.878906 L 848.601562 519.878906 L 848.601562 416.664062 L 848.910156 416.664062 C 850.546875 416.664062 851.902344 415.402344 851.902344 413.875 L 834.90625 413.875 C 834.90625 415.402344 836.234375 416.664062 837.875 416.664062 L 838.207031 416.664062 Z M 782.171875 469.738281 L 782.171875 519.878906 L 781.835938 519.878906 C 780.199219 519.878906 778.871094 521.140625 778.871094 522.667969 L 795.863281 522.667969 C 795.863281 521.140625 794.511719 519.878906 792.875 519.878906 L 792.566406 519.878906 L 792.566406 416.664062 L 792.875 416.664062 C 794.511719 416.664062 795.863281 415.402344 795.863281 413.875 L 778.871094 413.875 C 778.871094 415.402344 780.199219 416.664062 781.835938 416.664062 L 782.171875 416.664062 Z M 813.425781 450.632812 C 813.972656 450.105469 814.683594 449.773438 815.492188 449.773438 C 816.300781 449.773438 817.011719 450.105469 817.558594 450.632812 C 818.078125 451.15625 818.410156 451.871094 818.410156 452.679688 C 818.410156 453.492188 818.078125 454.230469 817.558594 454.753906 C 817.011719 455.277344 816.300781 455.609375 815.492188 455.609375 C 814.683594 455.609375 813.972656 455.277344 813.425781 454.753906 C 812.90625 454.230469 812.570312 453.492188 812.570312 452.679688 C 812.570312 451.871094 812.90625 451.15625 813.425781 450.632812 Z M 819.265625 455.945312 L 828.023438 455.945312 C 826.027344 453.132812 823.109375 451.011719 819.714844 450.035156 C 820.191406 450.824219 820.476562 451.726562 820.476562 452.679688 C 820.476562 453.917969 820.027344 455.0625 819.265625 455.945312 Z M 801.039062 461.660156 C 802.273438 460.421875 804.003906 459.636719 805.902344 459.636719 C 807.804688 459.636719 809.535156 460.421875 810.792969 461.660156 C 812.050781 462.921875 812.808594 464.664062 812.808594 466.570312 L 812.808594 501.464844 L 798.996094 501.464844 L 798.996094 466.570312 C 798.996094 464.664062 799.78125 462.921875 801.039062 461.660156 Z M 820.191406 461.660156 C 821.449219 460.421875 823.183594 459.636719 825.082031 459.636719 C 826.980469 459.636719 828.710938 460.421875 829.945312 461.660156 C 831.203125 462.921875 831.988281 464.664062 831.988281 466.570312 L 831.988281 501.464844 L 818.171875 501.464844 L 818.171875 466.570312 C 818.171875 464.664062 818.933594 462.921875 820.191406 461.660156 Z M 811.265625 450.035156 C 807.875 451.011719 804.953125 453.132812 802.9375 455.945312 L 811.71875 455.945312 C 810.960938 455.0625 810.507812 453.917969 810.507812 452.679688 C 810.507812 451.726562 810.792969 450.824219 811.265625 450.035156 Z M 815.371094 446.011719 C 804.242188 446.011719 795.128906 455.160156 795.128906 466.328125 L 795.128906 501.941406 C 795.128906 502.992188 795.199219 504.039062 795.367188 505.039062 L 835.40625 505.039062 C 835.570312 504.039062 835.644531 502.992188 835.644531 501.941406 L 835.644531 466.328125 C 835.644531 455.160156 826.527344 446.011719 815.371094 446.011719 Z M 763.230469 455.945312 L 771.988281 455.945312 C 769.992188 453.132812 767.050781 451.011719 763.683594 450.035156 C 764.15625 450.824219 764.441406 451.726562 764.441406 452.679688 C 764.441406 453.917969 763.988281 455.0625 763.230469 455.945312 Z M 764.15625 461.660156 C 765.414062 460.421875 767.121094 459.636719 769.023438 459.636719 C 770.945312 459.636719 772.652344 460.421875 773.910156 461.660156 C 775.167969 462.921875 775.953125 464.664062 775.953125 466.570312 L 775.953125 501.464844 L 762.117188 501.464844 L 762.117188 466.570312 C 762.117188 464.664062 762.898438 462.921875 764.15625 461.660156 Z M 876.105469 598.320312 L 876.105469 613.066406 L 900.410156 613.066406 L 900.410156 598.320312 Z M 830.777344 598.320312 L 830.777344 613.066406 L 857.144531 613.066406 L 857.144531 598.320312 Z M 774.90625 598.320312 L 774.90625 613.066406 L 800.703125 613.066406 L 800.703125 598.320312 Z M 858.355469 505.039062 L 855.007812 505.039062 L 855.007812 474.5 C 855.007812 470.425781 858.355469 467.070312 862.414062 467.070312 C 866.496094 467.070312 869.816406 470.425781 869.816406 474.5 L 869.816406 505.039062 Z M 860.730469 478.882812 C 859.328125 479.574219 858.355469 481.003906 858.355469 482.671875 L 858.355469 502.039062 L 866.683594 502.039062 L 866.683594 482.671875 C 866.683594 481.003906 865.710938 479.574219 864.316406 478.882812 C 865.074219 478.335938 865.570312 477.429688 865.570312 476.40625 C 865.570312 474.691406 864.214844 473.308594 862.511719 473.308594 C 860.820312 473.308594 859.449219 474.691406 859.449219 476.40625 C 859.449219 477.429688 859.949219 478.335938 860.730469 478.882812 Z M 759.503906 320.332031 L 759.410156 320.332031 L 758.269531 320.761719 L 743.507812 326.382812 L 743.507812 313.566406 C 743.507812 310.636719 741.113281 308.230469 738.191406 308.230469 C 735.273438 308.230469 732.875 310.636719 732.875 313.566406 L 732.875 330.433594 L 726.277344 332.933594 L 726.277344 313.566406 C 726.277344 310.636719 723.878906 308.230469 720.960938 308.230469 C 718.019531 308.230469 715.621094 310.636719 715.621094 313.566406 L 715.621094 336.984375 L 687 347.890625 L 687 287.148438 L 831.914062 287.148438 L 831.914062 347.890625 L 803.269531 336.984375 L 803.269531 313.566406 C 803.269531 310.636719 800.871094 308.230469 797.953125 308.230469 C 795.035156 308.230469 792.636719 310.636719 792.636719 313.566406 L 792.636719 332.933594 L 786.039062 330.433594 L 786.039062 313.566406 C 786.039062 310.636719 783.640625 308.230469 780.722656 308.230469 C 777.78125 308.230469 775.40625 310.636719 775.40625 313.566406 L 775.40625 326.382812 L 760.644531 320.761719 Z M 759.503906 558.445312 L 759.292969 558.445312 C 750.890625 558.445312 744.003906 565.351562 744.003906 573.761719 L 744.003906 595.296875 L 718.207031 595.296875 L 718.207031 573.546875 C 718.207031 565.234375 711.445312 558.445312 703.160156 558.445312 C 694.902344 558.445312 688.136719 565.234375 688.136719 573.546875 L 688.136719 595.296875 L 661.769531 595.296875 L 661.769531 572.953125 C 661.769531 567.714844 657.496094 563.421875 652.273438 563.421875 C 647.054688 563.421875 642.78125 567.714844 642.78125 572.953125 L 642.78125 595.296875 L 618.476562 595.296875 L 618.476562 540.792969 L 900.410156 540.792969 L 900.410156 595.296875 L 876.105469 595.296875 L 876.105469 572.953125 C 876.105469 567.714844 871.859375 563.421875 866.636719 563.421875 C 861.414062 563.421875 857.144531 567.714844 857.144531 572.953125 L 857.144531 595.296875 L 830.777344 595.296875 L 830.777344 573.546875 C 830.777344 565.234375 824.011719 558.445312 815.726562 558.445312 C 807.46875 558.445312 800.703125 565.234375 800.703125 573.546875 L 800.703125 595.296875 L 774.90625 595.296875 L 774.90625 573.761719 C 774.90625 565.351562 768.027344 558.445312 759.621094 558.445312 Z M 759.503906 455.609375 L 759.410156 455.609375 C 758.625 455.589844 757.914062 455.277344 757.390625 454.753906 C 756.871094 454.230469 756.535156 453.492188 756.535156 452.679688 C 756.535156 451.871094 756.871094 451.15625 757.390625 450.632812 C 757.914062 450.105469 758.625 449.773438 759.410156 449.773438 L 759.503906 449.773438 C 760.289062 449.773438 761 450.105469 761.496094 450.632812 C 762.046875 451.15625 762.351562 451.871094 762.351562 452.679688 C 762.351562 453.492188 762.046875 454.230469 761.496094 454.753906 C 761 455.277344 760.289062 455.589844 759.503906 455.609375 Z M 759.457031 410.519531 L 876.226562 410.519531 L 876.226562 526.214844 L 642.664062 526.214844 L 642.664062 410.519531 Z M 759.503906 446.011719 L 759.410156 446.011719 C 748.324219 446.082031 739.308594 455.207031 739.308594 466.328125 L 739.308594 501.941406 C 739.308594 502.992188 739.378906 504.039062 739.542969 505.039062 L 779.371094 505.039062 C 779.511719 504.039062 779.605469 502.992188 779.605469 501.941406 L 779.605469 466.328125 C 779.605469 455.207031 770.5625 446.082031 759.503906 446.011719 Z M 759.457031 529.242188 L 876.226562 529.242188 L 876.226562 537.792969 L 642.664062 537.792969 L 642.664062 529.242188 Z M 759.503906 330.859375 L 759.457031 330.882812 L 759.410156 330.859375 L 684.457031 359.398438 L 640.625 376.074219 L 878.265625 376.074219 L 834.433594 359.398438 Z M 759.457031 378.289062 L 890.183594 378.289062 L 884.605469 376.144531 L 835.214844 357.351562 L 759.886719 328.667969 L 759.503906 328.523438 L 759.410156 328.523438 L 759.03125 328.667969 L 683.699219 357.351562 L 634.285156 376.144531 L 628.734375 378.289062 Z M 759.503906 382.671875 L 604.902344 382.671875 L 682.15625 353.253906 L 759.410156 323.832031 L 759.457031 323.855469 L 759.503906 323.832031 L 836.757812 353.253906 L 914.007812 382.671875 Z M 759.457031 385.71875 L 900.410156 385.71875 L 900.410156 407.492188 L 618.476562 407.492188 L 618.476562 385.71875 Z M 759.457031 260.160156 L 759.648438 260.160156 C 791.402344 260.160156 818.671875 269.996094 830.5625 284.074219 L 688.351562 284.074219 C 700.21875 269.996094 727.511719 260.160156 759.265625 260.160156 Z M 1140.027344 497.226562 C 1141.472656 497.226562 1142.804688 497.820312 1143.777344 498.773438 C 1144.726562 499.75 1145.320312 501.082031 1145.320312 502.539062 L 1145.320312 522.238281 L 1134.707031 522.238281 L 1134.707031 502.539062 C 1134.707031 501.082031 1135.300781 499.75 1136.277344 498.773438 C 1137.226562 497.820312 1138.554688 497.226562 1140.027344 497.226562 Z M 1089.78125 498.773438 C 1090.757812 497.820312 1092.082031 497.226562 1093.53125 497.226562 C 1095.003906 497.226562 1096.332031 497.820312 1097.28125 498.773438 C 1098.253906 499.75 1098.847656 501.082031 1098.847656 502.539062 L 1098.847656 522.238281 L 1088.238281 522.238281 L 1088.238281 502.539062 C 1088.238281 501.082031 1088.832031 499.75 1089.78125 498.773438 Z M 1074.28125 498.773438 C 1075.257812 497.820312 1076.589844 497.226562 1078.03125 497.226562 C 1079.503906 497.226562 1080.835938 497.820312 1081.78125 498.773438 C 1082.753906 499.75 1083.347656 501.082031 1083.347656 502.539062 L 1083.347656 522.238281 L 1072.71875 522.238281 L 1072.71875 502.539062 C 1072.71875 501.082031 1073.335938 499.75 1074.28125 498.773438 Z M 1120.777344 498.773438 C 1121.726562 497.820312 1123.058594 497.226562 1124.527344 497.226562 C 1125.972656 497.226562 1127.304688 497.820312 1128.273438 498.773438 C 1129.226562 499.75 1129.824219 501.082031 1129.824219 502.539062 L 1129.824219 522.238281 L 1119.207031 522.238281 L 1119.207031 502.539062 C 1119.207031 501.082031 1119.800781 499.75 1120.777344 498.773438 Z M 1155.519531 497.226562 C 1156.972656 497.226562 1158.300781 497.820312 1159.277344 498.773438 C 1160.222656 499.75 1160.8125 501.082031 1160.8125 502.539062 L 1160.8125 522.238281 L 1150.210938 522.238281 L 1150.210938 502.539062 C 1150.210938 501.082031 1150.800781 499.75 1151.773438 498.773438 C 1152.722656 497.820312 1154.054688 497.226562 1155.519531 497.226562 Z M 1105.28125 498.773438 C 1106.25 497.820312 1107.578125 497.226562 1109.03125 497.226562 C 1110.5 497.226562 1111.832031 497.820312 1112.78125 498.773438 C 1113.75 499.75 1114.34375 501.082031 1114.34375 502.539062 L 1114.34375 522.238281 L 1103.714844 522.238281 L 1103.714844 502.539062 C 1103.714844 501.082031 1104.332031 499.75 1105.28125 498.773438 Z M 1169.078125 537.792969 L 1169.078125 482.574219 L 1064.480469 482.574219 L 1064.480469 537.792969 Z M 1064.480469 540.792969 L 1064.480469 613.066406 L 1072.289062 613.066406 L 1072.289062 562.375 C 1072.289062 555.203125 1078.152344 549.324219 1085.292969 549.324219 C 1092.464844 549.324219 1098.300781 555.203125 1098.300781 562.375 L 1098.300781 613.066406 L 1103.785156 613.066406 L 1103.785156 562.375 C 1103.785156 555.203125 1109.625 549.324219 1116.792969 549.324219 C 1123.933594 549.324219 1129.773438 555.203125 1129.773438 562.375 L 1129.773438 613.066406 L 1135.257812 613.066406 L 1135.257812 562.375 C 1135.257812 555.203125 1141.09375 549.324219 1148.261719 549.324219 C 1155.40625 549.324219 1161.246094 555.203125 1161.246094 562.375 L 1161.246094 613.066406 L 1169.078125 613.066406 L 1169.078125 540.792969 Z M 1061.515625 410.683594 L 1044.855469 410.683594 L 1044.855469 427.40625 L 1061.515625 427.40625 Z M 759.457031 202.703125 L 759.503906 202.703125 C 761.191406 202.703125 762.566406 204.085938 762.566406 205.777344 L 762.566406 211.730469 L 756.347656 211.730469 L 756.347656 205.777344 C 756.347656 204.085938 757.726562 202.703125 759.410156 202.703125 Z M 752.3125 164.066406 L 757.652344 164.066406 L 757.652344 159.324219 L 761.238281 159.324219 L 761.238281 164.066406 L 766.578125 164.066406 L 766.578125 167.328125 L 761.238281 167.328125 L 761.238281 176.308594 C 767.503906 177.308594 772.34375 183.503906 772.582031 191.078125 C 772.605469 191.199219 772.628906 191.292969 772.628906 191.390625 L 772.84375 191.390625 C 773.628906 191.390625 774.265625 192.03125 774.265625 192.816406 L 774.265625 192.867188 L 744.644531 192.867188 L 744.644531 192.816406 C 744.644531 192.03125 745.265625 191.390625 746.046875 191.390625 L 746.261719 191.390625 C 746.285156 191.292969 746.308594 191.199219 746.332031 191.078125 C 746.570312 183.503906 751.410156 177.308594 757.652344 176.308594 L 757.652344 167.328125 L 752.3125 167.328125 Z M 745.3125 214.183594 L 745.3125 194.484375 L 773.601562 194.484375 L 773.601562 213.566406 L 773.554688 213.566406 L 773.554688 214.183594 L 787.484375 214.183594 L 787.484375 214.136719 L 787.914062 214.136719 C 788.292969 214.398438 788.671875 214.660156 789.050781 214.925781 C 797.691406 220.949219 802.890625 226.359375 806.972656 236.078125 C 809.796875 242.769531 811.457031 250.203125 812.265625 257.085938 L 706.625 257.085938 C 707.453125 250.203125 709.09375 242.769531 711.917969 236.078125 C 716.023438 226.359375 721.222656 220.949219 729.859375 214.925781 C 730.214844 214.660156 730.574219 214.425781 730.929688 214.183594 Z M 457.375 410.683594 L 474.035156 410.683594 L 474.035156 427.40625 L 457.375 427.40625 L 457.375 410.683594 " fill-opacity="1" fill-rule="evenodd"/></g></svg>